<?xml version="1.0" encoding="UTF-8" standalone="no"?>
<!DOCTYPE svg PUBLIC "-//W3C//DTD SVG 1.1//EN"
 "http://www.w3.org/Graphics/SVG/1.1/DTD/svg11.dtd">
<!-- Generated by graphviz version 2.40.1 (20161225.0304)
 -->
<!-- Title: %3 Pages: 1 -->
<svg width="238pt" height="230pt"
 viewBox="0.00 0.00 238.00 230.00" xmlns="http://www.w3.org/2000/svg" xmlns:xlink="http://www.w3.org/1999/xlink">
<g id="graph0" class="graph" transform="scale(1 1) rotate(0) translate(4 226)">
<title>%3</title>
<polygon fill="#ffffff" stroke="transparent" points="-4,4 -4,-226 234,-226 234,4 -4,4"/>
<text text-anchor="middle" x="115" y="-7.8" font-family="Times,serif" font-size="14.00" fill="#000000">I</text>
<g id="clust1" class="cluster">
<title>cluster_0</title>
<polygon fill="none" stroke="#000000" points="8,-31 8,-106 222,-106 222,-31 8,-31"/>
<text text-anchor="middle" x="115" y="-90.8" font-family="Times,serif" font-size="14.00" fill="#000000">Insieme Indipendente</text>
</g>
<!-- e -->
<g id="node1" class="node">
<title>e</title>
<ellipse fill="none" stroke="#ff0000" stroke-width="3" cx="43" cy="-57" rx="27" ry="18"/>
<text text-anchor="middle" x="43" y="-53.3" font-family="Times,serif" font-size="14.00" fill="#000000">e</text>
</g>
<!-- b -->
<g id="node2" class="node">
<title>b</title>
<ellipse fill="none" stroke="#ff0000" stroke-width="3" cx="115" cy="-57" rx="27" ry="18"/>
<text text-anchor="middle" x="115" y="-53.3" font-family="Times,serif" font-size="14.00" fill="#000000">b</text>
</g>
<!-- c -->
<g id="node3" class="node">
<title>c</title>
<ellipse fill="none" stroke="#ff0000" stroke-width="3" cx="187" cy="-57" rx="27" ry="18"/>
<text text-anchor="middle" x="187" y="-53.3" font-family="Times,serif" font-size="14.00" fill="#000000">c</text>
</g>
<!-- a -->
<g id="node4" class="node">
<title>a</title>
<ellipse fill="none" stroke="#000000" cx="191" cy="-204" rx="27" ry="18"/>
<text text-anchor="middle" x="191" y="-200.3" font-family="Times,serif" font-size="14.00" fill="#000000">a</text>
</g>
<!-- a&#45;&#45;e -->
<g id="edge1" class="edge">
<title>a&#45;&#45;e</title>
<path fill="none" stroke="#000000" d="M181.3239,-186.8099C168.7791,-166.1777 144.9208,-132.1027 115,-114 100.9766,-105.5156 92.7286,-114.9537 79,-106 67.152,-98.2728 57.8438,-85.2097 51.6628,-74.5138"/>
</g>
<!-- a&#45;&#45;b -->
<g id="edge2" class="edge">
<title>a&#45;&#45;b</title>
<path fill="none" stroke="#000000" d="M195.7176,-186.1728C199.845,-166.1886 202.8518,-133.975 186,-114 175.7107,-101.8038 164.339,-114.7572 151,-106 139.1754,-98.237 129.8661,-85.1756 123.6788,-74.4894"/>
</g>
<!-- a&#45;&#45;c -->
<g id="edge3" class="edge">
<title>a&#45;&#45;c</title>
<path fill="none" stroke="#000000" d="M203.962,-188.0916C211.421,-177.8814 220.0719,-163.9607 224,-150 228.3336,-134.598 228.5427,-129.3416 224,-114 219.4445,-98.6152 209.2868,-83.4898 200.765,-72.6902"/>
</g>
<!-- d -->
<g id="node5" class="node">
<title>d</title>
<ellipse fill="none" stroke="#000000" cx="79" cy="-132" rx="27" ry="18"/>
<text text-anchor="middle" x="79" y="-128.3" font-family="Times,serif" font-size="14.00" fill="#000000">d</text>
</g>
<!-- a&#45;&#45;d -->
<g id="edge4" class="edge">
<title>a&#45;&#45;d</title>
<path fill="none" stroke="#000000" d="M171.4911,-191.4586C151.0596,-178.324 119.1494,-157.8104 98.6611,-144.6393"/>
</g>
<!-- d&#45;&#45;e -->
<g id="edge5" class="edge">
<title>d&#45;&#45;e</title>
<path fill="none" stroke="#000000" d="M70.6504,-114.605C64.8345,-102.4885 57.1103,-86.3964 51.3043,-74.3007"/>
</g>
<!-- d&#45;&#45;b -->
<g id="edge6" class="edge">
<title>d&#45;&#45;b</title>
<path fill="none" stroke="#000000" d="M87.3496,-114.605C93.1655,-102.4885 100.8897,-86.3964 106.6957,-74.3007"/>
</g>
<!-- f -->
<g id="node6" class="node">
<title>f</title>
<ellipse fill="none" stroke="#000000" cx="52" cy="-204" rx="27" ry="18"/>
<text text-anchor="middle" x="52" y="-200.3" font-family="Times,serif" font-size="14.00" fill="#000000">f</text>
</g>
<!-- f&#45;&#45;e -->
<g id="edge7" class="edge">
<title>f&#45;&#45;e</title>
<path fill="none" stroke="#000000" d="M35.9946,-189.1535C26.4303,-179.1432 15.165,-165.0535 10,-150 4.8074,-134.866 5.8496,-129.4523 10,-114 13.9746,-99.2021 22.8298,-84.2785 30.3673,-73.4152"/>
</g>
<!-- f&#45;&#45;b -->
<g id="edge8" class="edge">
<title>f&#45;&#45;b</title>
<path fill="none" stroke="#000000" d="M43.689,-186.7019C35.5272,-166.9073 26.4927,-134.5782 43,-114 53.2559,-101.2149 65.2714,-114.9537 79,-106 90.848,-98.2728 100.1562,-85.2097 106.3372,-74.5138"/>
</g>
<!-- f&#45;&#45;c -->
<g id="edge9" class="edge">
<title>f&#45;&#45;c</title>
<path fill="none" stroke="#000000" d="M69.8467,-190.115C82.8822,-179.6437 100.7021,-164.6291 115,-150 132.6607,-131.9302 135.5148,-125.9656 151,-106 159.2809,-95.3232 168.2809,-83.0732 175.2107,-73.4924"/>
</g>
<!-- f&#45;&#45;d -->
<g id="edge10" class="edge">
<title>f&#45;&#45;d</title>
<path fill="none" stroke="#000000" d="M58.6742,-186.2022C62.8593,-175.0419 68.2321,-160.7143 72.4026,-149.593"/>
</g>
</g>
</svg>
