<?xml version="1.0" encoding="UTF-8" standalone="no"?>
<!DOCTYPE svg PUBLIC "-//W3C//DTD SVG 1.1//EN"
 "http://www.w3.org/Graphics/SVG/1.1/DTD/svg11.dtd">
<!-- Generated by graphviz version 2.40.1 (20161225.0304)
 -->
<!-- Title: %3 Pages: 1 -->
<svg width="185pt" height="274pt"
 viewBox="0.00 0.00 185.44 274.46" xmlns="http://www.w3.org/2000/svg" xmlns:xlink="http://www.w3.org/1999/xlink">
<g id="graph0" class="graph" transform="scale(1 1) rotate(0) translate(4 270.4569)">
<title>%3</title>
<polygon fill="#ffffff" stroke="transparent" points="-4,4 -4,-270.4569 181.4444,-270.4569 181.4444,4 -4,4"/>
<text text-anchor="middle" x="88.7222" y="-7.8" font-family="Times,serif" font-size="14.00" fill="#000000">G</text>
<!-- a -->
<g id="node1" class="node">
<title>a</title>
<ellipse fill="none" stroke="#ff0000" stroke-width="3" cx="47.5778" cy="-41" rx="27" ry="18"/>
<text text-anchor="middle" x="47.5778" y="-37.3" font-family="Times,serif" font-size="14.00" fill="#000000">a</text>
</g>
<!-- b -->
<g id="node2" class="node">
<title>b</title>
<ellipse fill="none" stroke="#ff0000" stroke-width="3" cx="104.295" cy="-50.4296" rx="27" ry="18"/>
<text text-anchor="middle" x="104.295" y="-46.7296" font-family="Times,serif" font-size="14.00" fill="#000000">b</text>
</g>
<!-- a&#45;&#45;b -->
<g id="edge1" class="edge">
<title>a&#45;&#45;b</title>
<path fill="none" stroke="#ff0000" stroke-width="3" d="M73.9439,-45.3835C75.2168,-45.5952 76.495,-45.8077 77.7683,-46.0194"/>
</g>
<!-- c -->
<g id="node3" class="node">
<title>c</title>
<ellipse fill="none" stroke="#ff0000" stroke-width="3" cx="89.7314" cy="-114.5744" rx="27" ry="18"/>
<text text-anchor="middle" x="89.7314" y="-110.8744" font-family="Times,serif" font-size="14.00" fill="#000000">c</text>
</g>
<!-- a&#45;&#45;c -->
<g id="edge2" class="edge">
<title>a&#45;&#45;c</title>
<path fill="none" stroke="#ff0000" stroke-width="3" d="M57.3547,-58.0644C64.1647,-69.9505 73.2092,-85.7368 80.0076,-97.6026"/>
</g>
<!-- c&#45;&#45;b -->
<g id="edge3" class="edge">
<title>c&#45;&#45;b</title>
<path fill="none" stroke="#ff0000" stroke-width="3" d="M93.7882,-96.7065C95.7745,-87.9579 98.1619,-77.4423 100.1588,-68.6474"/>
</g>
<!-- d -->
<g id="node5" class="node">
<title>d</title>
<ellipse fill="none" stroke="#000000" cx="127.6543" cy="-179.2179" rx="27" ry="18"/>
<text text-anchor="middle" x="127.6543" y="-175.5179" font-family="Times,serif" font-size="14.00" fill="#000000">d</text>
</g>
<!-- c&#45;&#45;d -->
<g id="edge7" class="edge">
<title>c&#45;&#45;d</title>
<path fill="none" stroke="#000000" d="M99.6952,-131.5587C105.2254,-140.9855 112.0848,-152.6781 117.6254,-162.1226"/>
</g>
<!-- e -->
<g id="node4" class="node">
<title>e</title>
<ellipse fill="none" stroke="#ff0000" stroke-width="3" cx="27" cy="-94.4454" rx="27" ry="18"/>
<text text-anchor="middle" x="27" y="-90.7454" font-family="Times,serif" font-size="14.00" fill="#000000">e</text>
</g>
<!-- e&#45;&#45;a -->
<g id="edge4" class="edge">
<title>e&#45;&#45;a</title>
<path fill="none" stroke="#ff0000" stroke-width="3" d="M33.738,-76.9454C35.9885,-71.1003 38.4973,-64.5842 40.7543,-58.7223"/>
</g>
<!-- e&#45;&#45;b -->
<g id="edge5" class="edge">
<title>e&#45;&#45;b</title>
<path fill="none" stroke="#ff0000" stroke-width="3" d="M47.7136,-82.65C58.8037,-76.3347 72.4254,-68.5778 83.5242,-62.2576"/>
</g>
<!-- e&#45;&#45;c -->
<g id="edge6" class="edge">
<title>e&#45;&#45;c</title>
<path fill="none" stroke="#ff0000" stroke-width="3" d="M51.4332,-102.2854C55.9743,-103.7425 60.7195,-105.2652 65.2616,-106.7226"/>
</g>
<!-- f -->
<g id="node6" class="node">
<title>f</title>
<ellipse fill="none" stroke="#000000" cx="150.4444" cy="-248.4569" rx="27" ry="18"/>
<text text-anchor="middle" x="150.4444" y="-244.7569" font-family="Times,serif" font-size="14.00" fill="#000000">f</text>
</g>
<!-- d&#45;&#45;f -->
<g id="edge8" class="edge">
<title>d&#45;&#45;f</title>
<path fill="none" stroke="#000000" d="M133.5233,-197.0487C136.8996,-207.3062 141.1299,-220.1582 144.5161,-230.4459"/>
</g>
</g>
</svg>
