<?xml version="1.0" encoding="UTF-8" standalone="no"?>
<!DOCTYPE svg PUBLIC "-//W3C//DTD SVG 1.1//EN"
 "http://www.w3.org/Graphics/SVG/1.1/DTD/svg11.dtd">
<!-- Generated by graphviz version 2.40.1 (20161225.0304)
 -->
<!-- Title: %3 Pages: 1 -->
<svg width="242pt" height="361pt"
 viewBox="0.00 0.00 241.69 360.92" xmlns="http://www.w3.org/2000/svg" xmlns:xlink="http://www.w3.org/1999/xlink">
<g id="graph0" class="graph" transform="scale(1 1) rotate(0) translate(4 356.9204)">
<title>%3</title>
<polygon fill="#ffffff" stroke="transparent" points="-4,4 -4,-356.9204 237.6898,-356.9204 237.6898,4 -4,4"/>
<text text-anchor="middle" x="116.8449" y="-7.8" font-family="Times,serif" font-size="14.00" fill="#000000">G</text>
<!-- a -->
<g id="node1" class="node">
<title>a</title>
<ellipse fill="none" stroke="#000000" cx="131.3311" cy="-334.9204" rx="27" ry="18"/>
<text text-anchor="middle" x="131.3311" y="-331.2204" font-family="Times,serif" font-size="14.00" fill="#000000">a</text>
</g>
<!-- b -->
<g id="node2" class="node">
<title>b</title>
<ellipse fill="none" stroke="#ff0000" stroke-width="3" cx="145.6086" cy="-261.4798" rx="27" ry="18"/>
<text text-anchor="middle" x="145.6086" y="-257.7798" font-family="Times,serif" font-size="14.00" fill="#000000">b</text>
</g>
<!-- a&#45;&#45;b -->
<g id="edge1" class="edge">
<title>a&#45;&#45;b</title>
<path fill="none" stroke="#000000" d="M134.8604,-316.7666C137.0734,-305.3829 139.9146,-290.7687 142.1199,-279.4248"/>
</g>
<!-- c -->
<g id="node3" class="node">
<title>c</title>
<ellipse fill="none" stroke="#ff0000" stroke-width="3" cx="142.1035" cy="-186.1245" rx="27" ry="18"/>
<text text-anchor="middle" x="142.1035" y="-182.4245" font-family="Times,serif" font-size="14.00" fill="#000000">c</text>
</g>
<!-- c&#45;&#45;b -->
<g id="edge3" class="edge">
<title>c&#45;&#45;b</title>
<path fill="none" stroke="#ff0000" stroke-width="3" d="M142.952,-204.3659C143.5031,-216.2136 144.2184,-231.5922 144.7679,-243.4063"/>
</g>
<!-- d -->
<g id="node4" class="node">
<title>d</title>
<ellipse fill="none" stroke="#000000" cx="108.9387" cy="-112.7728" rx="27" ry="18"/>
<text text-anchor="middle" x="108.9387" y="-109.0728" font-family="Times,serif" font-size="14.00" fill="#000000">d</text>
</g>
<!-- c&#45;&#45;d -->
<g id="edge2" class="edge">
<title>c&#45;&#45;d</title>
<path fill="none" stroke="#000000" d="M134.2439,-168.7411C128.9572,-157.0483 122.0168,-141.698 116.7419,-130.0313"/>
</g>
<!-- f -->
<g id="node6" class="node">
<title>f</title>
<ellipse fill="none" stroke="#000000" cx="27" cy="-122.6041" rx="27" ry="18"/>
<text text-anchor="middle" x="27" y="-118.9041" font-family="Times,serif" font-size="14.00" fill="#000000">f</text>
</g>
<!-- d&#45;&#45;f -->
<g id="edge6" class="edge">
<title>d&#45;&#45;f</title>
<path fill="none" stroke="#000000" d="M82.1089,-115.9919C72.9609,-117.0895 62.7409,-118.3158 53.6102,-119.4113"/>
</g>
<!-- h -->
<g id="node7" class="node">
<title>h</title>
<ellipse fill="none" stroke="#000000" cx="77.0556" cy="-41" rx="27" ry="18"/>
<text text-anchor="middle" x="77.0556" y="-37.3" font-family="Times,serif" font-size="14.00" fill="#000000">h</text>
</g>
<!-- d&#45;&#45;h -->
<g id="edge7" class="edge">
<title>d&#45;&#45;h</title>
<path fill="none" stroke="#000000" d="M101.2207,-95.3986C96.2448,-84.1971 89.7968,-69.6819 84.8131,-58.4629"/>
</g>
<!-- g -->
<g id="node8" class="node">
<title>g</title>
<ellipse fill="none" stroke="#000000" cx="172.2195" cy="-59.5077" rx="27" ry="18"/>
<text text-anchor="middle" x="172.2195" y="-55.8077" font-family="Times,serif" font-size="14.00" fill="#000000">g</text>
</g>
<!-- d&#45;&#45;g -->
<g id="edge8" class="edge">
<title>d&#45;&#45;g</title>
<path fill="none" stroke="#000000" d="M125.8968,-98.4987C134.9762,-90.8563 146.1281,-81.4695 155.2146,-73.8211"/>
</g>
<!-- e -->
<g id="node5" class="node">
<title>e</title>
<ellipse fill="none" stroke="#ff0000" stroke-width="3" cx="206.6898" cy="-224.6016" rx="27" ry="18"/>
<text text-anchor="middle" x="206.6898" y="-220.9016" font-family="Times,serif" font-size="14.00" fill="#000000">e</text>
</g>
<!-- e&#45;&#45;b -->
<g id="edge4" class="edge">
<title>e&#45;&#45;b</title>
<path fill="none" stroke="#ff0000" stroke-width="3" d="M186.3507,-236.8815C179.6874,-240.9045 172.2923,-245.3693 165.6512,-249.379"/>
</g>
<!-- e&#45;&#45;c -->
<g id="edge5" class="edge">
<title>e&#45;&#45;c</title>
<path fill="none" stroke="#ff0000" stroke-width="3" d="M186.2543,-212.4272C178.7152,-207.9358 170.1747,-202.8478 162.6278,-198.3517"/>
</g>
</g>
</svg>
