<?xml version="1.0" encoding="UTF-8" standalone="no"?>
<!DOCTYPE svg PUBLIC "-//W3C//DTD SVG 1.1//EN"
 "http://www.w3.org/Graphics/SVG/1.1/DTD/svg11.dtd">
<!-- Generated by graphviz version 2.40.1 (20161225.0304)
 -->
<!-- Title: %3 Pages: 1 -->
<svg width="287pt" height="176pt"
 viewBox="0.00 0.00 287.21 175.64" xmlns="http://www.w3.org/2000/svg" xmlns:xlink="http://www.w3.org/1999/xlink">
<g id="graph0" class="graph" transform="scale(1 1) rotate(0) translate(4 171.6391)">
<title>%3</title>
<polygon fill="#ffffff" stroke="transparent" points="-4,4 -4,-171.6391 283.2096,-171.6391 283.2096,4 -4,4"/>
<text text-anchor="middle" x="139.6048" y="-7.8" font-family="Times,serif" font-size="14.00" fill="#000000">G</text>
<!-- a -->
<g id="node1" class="node">
<title>a</title>
<ellipse fill="none" stroke="#000000" cx="181" cy="-149.6391" rx="27" ry="18"/>
<text text-anchor="middle" x="181" y="-145.9391" font-family="Times,serif" font-size="14.00" fill="#000000">a</text>
</g>
<!-- f -->
<g id="node2" class="node">
<title>f</title>
<ellipse fill="none" stroke="#000000" cx="252.2096" cy="-139" rx="27" ry="18"/>
<text text-anchor="middle" x="252.2096" y="-135.3" font-family="Times,serif" font-size="14.00" fill="#000000">f</text>
</g>
<!-- a&#45;&#45;f -->
<g id="edge1" class="edge">
<title>a&#45;&#45;f</title>
<path fill="none" stroke="#000000" d="M207.5158,-145.6775C213.3682,-144.8031 219.5716,-143.8763 225.4342,-143.0004"/>
</g>
<!-- c -->
<g id="node3" class="node">
<title>c</title>
<ellipse fill="none" stroke="#ff0000" stroke-width="3" cx="94.5324" cy="-85.1887" rx="27" ry="18"/>
<text text-anchor="middle" x="94.5324" y="-81.4887" font-family="Times,serif" font-size="14.00" fill="#000000">c</text>
</g>
<!-- d -->
<g id="node4" class="node">
<title>d</title>
<ellipse fill="none" stroke="#000000" cx="167.3725" cy="-93.6108" rx="27" ry="18"/>
<text text-anchor="middle" x="167.3725" y="-89.9108" font-family="Times,serif" font-size="14.00" fill="#000000">d</text>
</g>
<!-- c&#45;&#45;d -->
<g id="edge2" class="edge">
<title>c&#45;&#45;d</title>
<path fill="none" stroke="#000000" d="M121.2418,-88.277C127.5758,-89.0093 134.3325,-89.7906 140.6664,-90.5229"/>
</g>
<!-- b -->
<g id="node5" class="node">
<title>b</title>
<ellipse fill="none" stroke="#ff0000" stroke-width="3" cx="36.6876" cy="-41" rx="27" ry="18"/>
<text text-anchor="middle" x="36.6876" y="-37.3" font-family="Times,serif" font-size="14.00" fill="#000000">b</text>
</g>
<!-- c&#45;&#45;b -->
<g id="edge3" class="edge">
<title>c&#45;&#45;b</title>
<path fill="none" stroke="#ff0000" stroke-width="3" d="M76.547,-71.4493C69.516,-66.0782 61.4738,-59.9346 54.4632,-54.5791"/>
</g>
<!-- e -->
<g id="node6" class="node">
<title>e</title>
<ellipse fill="none" stroke="#ff0000" stroke-width="3" cx="27" cy="-112.1528" rx="27" ry="18"/>
<text text-anchor="middle" x="27" y="-108.4528" font-family="Times,serif" font-size="14.00" fill="#000000">e</text>
</g>
<!-- e&#45;&#45;c -->
<g id="edge4" class="edge">
<title>e&#45;&#45;c</title>
<path fill="none" stroke="#ff0000" stroke-width="3" d="M50.2408,-102.8733C56.9559,-100.1921 64.288,-97.2646 71.0195,-94.5769"/>
</g>
<!-- e&#45;&#45;b -->
<g id="edge5" class="edge">
<title>e&#45;&#45;b</title>
<path fill="none" stroke="#ff0000" stroke-width="3" d="M29.4446,-94.198C30.902,-83.4941 32.747,-69.943 34.2101,-59.1966"/>
</g>
</g>
</svg>
