<?xml version="1.0" encoding="UTF-8" standalone="no"?>
<!DOCTYPE svg PUBLIC "-//W3C//DTD SVG 1.1//EN"
 "http://www.w3.org/Graphics/SVG/1.1/DTD/svg11.dtd">
<!-- Generated by graphviz version 2.40.1 (20161225.0304)
 -->
<!-- Title: %3 Pages: 1 -->
<svg width="247pt" height="218pt"
 viewBox="0.00 0.00 247.34 217.86" xmlns="http://www.w3.org/2000/svg" xmlns:xlink="http://www.w3.org/1999/xlink">
<g id="graph0" class="graph" transform="scale(1 1) rotate(0) translate(4 213.8585)">
<title>%3</title>
<polygon fill="#ffffff" stroke="transparent" points="-4,4 -4,-213.8585 243.3362,-213.8585 243.3362,4 -4,4"/>
<text text-anchor="middle" x="119.6681" y="-7.8" font-family="Times,serif" font-size="14.00" fill="#000000">G</text>
<!-- a -->
<g id="node1" class="node">
<title>a</title>
<ellipse fill="none" stroke="#000000" cx="154.7013" cy="-41" rx="27" ry="18"/>
<text text-anchor="middle" x="154.7013" y="-37.3" font-family="Times,serif" font-size="14.00" fill="#000000">a</text>
</g>
<!-- b -->
<g id="node2" class="node">
<title>b</title>
<ellipse fill="none" stroke="#000000" cx="211.065" cy="-51.2878" rx="27" ry="18"/>
<text text-anchor="middle" x="211.065" y="-47.5878" font-family="Times,serif" font-size="14.00" fill="#000000">b</text>
</g>
<!-- a&#45;&#45;b -->
<g id="edge1" class="edge">
<title>a&#45;&#45;b</title>
<path fill="none" stroke="#000000" d="M180.9031,-45.7825C182.168,-46.0134 183.4382,-46.2452 184.7036,-46.4762"/>
</g>
<!-- c -->
<g id="node3" class="node">
<title>c</title>
<ellipse fill="none" stroke="#000000" cx="146.5922" cy="-106.3687" rx="27" ry="18"/>
<text text-anchor="middle" x="146.5922" y="-102.6687" font-family="Times,serif" font-size="14.00" fill="#000000">c</text>
</g>
<!-- a&#45;&#45;c -->
<g id="edge2" class="edge">
<title>a&#45;&#45;c</title>
<path fill="none" stroke="#000000" d="M152.4425,-59.2088C151.3178,-68.2754 149.962,-79.2043 148.8389,-88.2575"/>
</g>
<!-- c&#45;&#45;b -->
<g id="edge3" class="edge">
<title>c&#45;&#45;b</title>
<path fill="none" stroke="#000000" d="M163.5317,-91.8968C172.9335,-83.8646 184.5953,-73.9016 194.0148,-65.8542"/>
</g>
<!-- d -->
<g id="node4" class="node">
<title>d</title>
<ellipse fill="none" stroke="#000000" cx="90.4379" cy="-155.9955" rx="27" ry="18"/>
<text text-anchor="middle" x="90.4379" y="-152.2955" font-family="Times,serif" font-size="14.00" fill="#000000">d</text>
</g>
<!-- c&#45;&#45;d -->
<g id="edge4" class="edge">
<title>c&#45;&#45;d</title>
<path fill="none" stroke="#000000" d="M130.0478,-120.9899C122.801,-127.3944 114.3136,-134.8952 107.0581,-141.3072"/>
</g>
<!-- f -->
<g id="node6" class="node">
<title>f</title>
<ellipse fill="none" stroke="#000000" cx="27" cy="-191.8585" rx="27" ry="18"/>
<text text-anchor="middle" x="27" y="-188.1585" font-family="Times,serif" font-size="14.00" fill="#000000">f</text>
</g>
<!-- d&#45;&#45;f -->
<g id="edge8" class="edge">
<title>d&#45;&#45;f</title>
<path fill="none" stroke="#000000" d="M69.666,-167.7384C62.5835,-171.7423 54.671,-176.2154 47.6019,-180.2117"/>
</g>
<!-- e -->
<g id="node5" class="node">
<title>e</title>
<ellipse fill="none" stroke="#000000" cx="212.3362" cy="-108.746" rx="27" ry="18"/>
<text text-anchor="middle" x="212.3362" y="-105.046" font-family="Times,serif" font-size="14.00" fill="#000000">e</text>
</g>
<!-- e&#45;&#45;a -->
<g id="edge5" class="edge">
<title>e&#45;&#45;a</title>
<path fill="none" stroke="#000000" d="M198.9687,-93.0334C189.7907,-82.2452 177.6441,-67.9677 168.3965,-57.0978"/>
</g>
<!-- e&#45;&#45;b -->
<g id="edge6" class="edge">
<title>e&#45;&#45;b</title>
<path fill="none" stroke="#000000" d="M211.934,-90.5658C211.7856,-83.8588 211.6175,-76.2609 211.4689,-69.5469"/>
</g>
<!-- e&#45;&#45;c -->
<g id="edge7" class="edge">
<title>e&#45;&#45;c</title>
<path fill="none" stroke="#000000" d="M185.216,-107.7653C181.396,-107.6272 177.4689,-107.4852 173.65,-107.3471"/>
</g>
</g>
</svg>
