<?xml version="1.0" encoding="UTF-8" standalone="no"?>
<!DOCTYPE svg PUBLIC "-//W3C//DTD SVG 1.1//EN"
 "http://www.w3.org/Graphics/SVG/1.1/DTD/svg11.dtd">
<!-- Generated by graphviz version 2.40.1 (20161225.0304)
 -->
<!-- Title: %3 Pages: 1 -->
<svg width="218pt" height="228pt"
 viewBox="0.00 0.00 218.32 228.41" xmlns="http://www.w3.org/2000/svg" xmlns:xlink="http://www.w3.org/1999/xlink">
<g id="graph0" class="graph" transform="scale(1 1) rotate(0) translate(4 224.4111)">
<title>%3</title>
<polygon fill="#ffffff" stroke="transparent" points="-4,4 -4,-224.4111 214.3219,-224.4111 214.3219,4 -4,4"/>
<text text-anchor="middle" x="105.1609" y="-7.8" font-family="Times,serif" font-size="14.00" fill="#000000">H</text>
<!-- a -->
<g id="node1" class="node">
<title>a</title>
<ellipse fill="none" stroke="#000000" cx="68.1442" cy="-202.4111" rx="27" ry="18"/>
<text text-anchor="middle" x="68.1442" y="-198.7111" font-family="Times,serif" font-size="14.00" fill="#000000">a</text>
</g>
<!-- b -->
<g id="node2" class="node">
<title>b</title>
<ellipse fill="none" stroke="#ff0000" stroke-width="3" cx="132.2687" cy="-188.3427" rx="27" ry="18"/>
<text text-anchor="middle" x="132.2687" y="-184.6427" font-family="Times,serif" font-size="14.00" fill="#000000">b</text>
</g>
<!-- a&#45;&#45;b -->
<g id="edge1" class="edge">
<title>a&#45;&#45;b</title>
<path fill="none" stroke="#000000" d="M93.8566,-196.77C98.0378,-195.8527 102.3691,-194.9024 106.5505,-193.9851"/>
</g>
<!-- c -->
<g id="node3" class="node">
<title>c</title>
<ellipse fill="none" stroke="#ff0000" stroke-width="3" cx="162.3033" cy="-112.3961" rx="27" ry="18"/>
<text text-anchor="middle" x="162.3033" y="-108.6961" font-family="Times,serif" font-size="14.00" fill="#000000">c</text>
</g>
<!-- c&#45;&#45;b -->
<g id="edge3" class="edge">
<title>c&#45;&#45;b</title>
<path fill="none" stroke="#ff0000" stroke-width="3" d="M155.3373,-130.0107C150.4851,-142.28 144.0408,-158.5753 139.1969,-170.8237"/>
</g>
<!-- d -->
<g id="node4" class="node">
<title>d</title>
<ellipse fill="none" stroke="#000000" cx="91.3971" cy="-67.7873" rx="27" ry="18"/>
<text text-anchor="middle" x="91.3971" y="-64.0873" font-family="Times,serif" font-size="14.00" fill="#000000">d</text>
</g>
<!-- c&#45;&#45;d -->
<g id="edge2" class="edge">
<title>c&#45;&#45;d</title>
<path fill="none" stroke="#000000" d="M142.552,-99.9701C132.7173,-93.7829 120.8626,-86.3247 111.0425,-80.1467"/>
</g>
<!-- f -->
<g id="node6" class="node">
<title>f</title>
<ellipse fill="none" stroke="#000000" cx="27" cy="-121.7926" rx="27" ry="18"/>
<text text-anchor="middle" x="27" y="-118.0926" font-family="Times,serif" font-size="14.00" fill="#000000">f</text>
</g>
<!-- d&#45;&#45;f -->
<g id="edge6" class="edge">
<title>d&#45;&#45;f</title>
<path fill="none" stroke="#000000" d="M74.4775,-81.9765C65.0867,-89.8519 53.4386,-99.6204 44.0302,-107.5106"/>
</g>
<!-- h -->
<g id="node7" class="node">
<title>h</title>
<ellipse fill="none" stroke="#000000" cx="35.861" cy="-61.4376" rx="27" ry="18"/>
<text text-anchor="middle" x="35.861" y="-57.7376" font-family="Times,serif" font-size="14.00" fill="#000000">h</text>
</g>
<!-- d&#45;&#45;h -->
<g id="edge7" class="edge">
<title>d&#45;&#45;h</title>
<path fill="none" stroke="#000000" d="M64.6051,-64.724C63.9394,-64.6479 63.273,-64.5717 62.6073,-64.4956"/>
</g>
<!-- g -->
<g id="node8" class="node">
<title>g</title>
<ellipse fill="none" stroke="#000000" cx="144.2822" cy="-41" rx="27" ry="18"/>
<text text-anchor="middle" x="144.2822" y="-37.3" font-family="Times,serif" font-size="14.00" fill="#000000">g</text>
</g>
<!-- d&#45;&#45;g -->
<g id="edge8" class="edge">
<title>d&#45;&#45;g</title>
<path fill="none" stroke="#000000" d="M112.9075,-56.8919C116.1103,-55.2696 119.4133,-53.5966 122.6192,-51.9727"/>
</g>
<!-- e -->
<g id="node5" class="node">
<title>e</title>
<ellipse fill="none" stroke="#ff0000" stroke-width="3" cx="183.3219" cy="-162.7847" rx="27" ry="18"/>
<text text-anchor="middle" x="183.3219" y="-159.0847" font-family="Times,serif" font-size="14.00" fill="#000000">e</text>
</g>
<!-- e&#45;&#45;b -->
<g id="edge4" class="edge">
<title>e&#45;&#45;b</title>
<path fill="none" stroke="#ff0000" stroke-width="3" d="M161.6707,-173.6236C159.1704,-174.8753 156.6194,-176.1524 154.1165,-177.4053"/>
</g>
<!-- e&#45;&#45;c -->
<g id="edge5" class="edge">
<title>e&#45;&#45;c</title>
<path fill="none" stroke="#ff0000" stroke-width="3" d="M175.9706,-145.1612C173.8871,-140.1663 171.621,-134.7338 169.544,-129.7547"/>
</g>
<!-- i -->
<g id="node9" class="node">
<title>i</title>
<ellipse fill="none" stroke="#ff0000" stroke-width="3" cx="100.9458" cy="-124.9466" rx="27" ry="18"/>
<text text-anchor="middle" x="100.9458" y="-121.2466" font-family="Times,serif" font-size="14.00" fill="#000000">i</text>
</g>
<!-- i&#45;&#45;a -->
<g id="edge9" class="edge">
<title>i&#45;&#45;a</title>
<path fill="none" stroke="#000000" d="M93.5026,-142.5245C88.1344,-155.2021 80.9193,-172.2413 75.5579,-184.9028"/>
</g>
<!-- i&#45;&#45;b -->
<g id="edge14" class="edge">
<title>i&#45;&#45;b</title>
<path fill="none" stroke="#ff0000" stroke-width="3" d="M109.5049,-142.2699C113.9246,-151.2152 119.3017,-162.0981 123.7199,-171.0404"/>
</g>
<!-- i&#45;&#45;c -->
<g id="edge15" class="edge">
<title>i&#45;&#45;c</title>
<path fill="none" stroke="#ff0000" stroke-width="3" d="M126.9669,-119.6241C130.1024,-118.9827 133.3045,-118.3278 136.4378,-117.6868"/>
</g>
<!-- i&#45;&#45;d -->
<g id="edge10" class="edge">
<title>i&#45;&#45;d</title>
<path fill="none" stroke="#000000" d="M97.9245,-106.861C96.8099,-100.1889 95.5473,-92.6305 94.4315,-85.9514"/>
</g>
<!-- i&#45;&#45;e -->
<g id="edge16" class="edge">
<title>i&#45;&#45;e</title>
<path fill="none" stroke="#ff0000" stroke-width="3" d="M123.4554,-135.2861C135.0788,-140.6251 149.22,-147.1206 160.8394,-152.4578"/>
</g>
<!-- i&#45;&#45;f -->
<g id="edge11" class="edge">
<title>i&#45;&#45;f</title>
<path fill="none" stroke="#000000" d="M73.831,-123.7901C67.4008,-123.5158 60.5415,-123.2232 54.1115,-122.949"/>
</g>
<!-- i&#45;&#45;h -->
<g id="edge12" class="edge">
<title>i&#45;&#45;h</title>
<path fill="none" stroke="#000000" d="M85.5216,-109.8959C75.1466,-99.772 61.5263,-86.4815 51.1745,-76.3803"/>
</g>
<!-- i&#45;&#45;g -->
<g id="edge13" class="edge">
<title>i&#45;&#45;g</title>
<path fill="none" stroke="#000000" d="M109.9251,-107.5528C117.4123,-93.0495 128.0203,-72.5008 135.4626,-58.0843"/>
</g>
</g>
</svg>
